<?xml version="1.0" encoding="UTF-8"?>
<svg version="1.1" xmlns="http://www.w3.org/2000/svg"
     width="1770" height="1867" viewBox="110 218 1770 1867"
     shape-rendering="geometricPrecision">
<path d="M0 0 C0.9 7.4 2.7 19.3 1.9 32.5 C1.1 45.8 -1.9 66.7 -4.9 79.5 C-7.8 92.3 -9.6 96.8 -15.6 109.1 C-21.6 121.4 -47.3 141.2 -40.8 153.3 C-34.4 165.5 -0.2 169.4 23.1 182 C46.3 194.6 76.9 214.1 98.5 228.9 C120.2 243.7 132.2 251.9 153.1 271 C173.9 290.1 201.5 317.9 223.4 343.8 C245.4 369.7 269.2 403.4 284.7 426.4 C300.2 449.5 308.7 466.8 316.4 481.9 C324.2 497.1 319.7 484.9 331.3 517.2 C343 549.5 373.6 641.5 386.5 675.7 C399.3 709.9 401.5 709.1 408.4 722.4 C415.3 735.6 421.5 745.5 428 755.1 C434.5 764.7 440.3 772.3 447.4 780 C454.5 787.6 460.2 794.1 470.5 800.8 C480.8 807.5 498.8 816 509.1 820 C519.4 824 526.1 821.9 532.3 824.7 C538.6 827.5 543.2 832.9 546.5 836.8 C549.7 840.8 550.7 844.1 551.8 848.3 C552.9 852.5 554.6 855.5 553.1 862 C551.5 868.5 548.9 877.5 542.3 887.1 C535.6 896.7 524.4 910.7 513.1 919.7 C501.9 928.7 485.8 936.4 474.9 941.3 C464.1 946.2 455.9 947.6 448.1 949 C440.3 950.4 430.6 942.4 428.1 950 C425.5 957.6 432.4 980.5 432.8 994.6 C433.1 1008.6 432.6 1018.5 430.2 1034.2 C427.8 1050 422.8 1073.6 418.4 1089.1 C414.1 1104.5 411.1 1112.9 404 1126.9 C396.9 1140.8 386.2 1159.3 375.8 1172.7 C365.5 1186 352.8 1193.4 342.1 1207 C331.3 1220.6 325.6 1235.8 311.3 1254.5 C296.9 1273.1 266.7 1304.7 255.9 1318.8 C245.2 1332.9 248.6 1334 246.8 1339 C245.1 1344 245.1 1344.1 245.4 1349 C245.6 1353.8 246.1 1362.1 248.5 1368.2 C250.9 1374.3 254.6 1380.3 259.6 1385.8 C264.6 1391.3 267.4 1396 278.4 1401 C289.4 1406.1 315.1 1411.3 325.6 1416.1 C336.1 1420.8 337.8 1424.2 341.5 1429.6 C345.1 1435 347.4 1441.9 347.6 1448.6 C347.9 1455.4 346.6 1462.8 343.1 1470 C339.5 1477.2 332.9 1485.3 326.4 1491.6 C320 1497.8 316.1 1501.5 304.4 1507.4 C292.7 1513.2 268 1522.8 256.3 1526.6 C244.6 1530.5 242.1 1529.8 234.1 1530.5 C226.2 1531.2 215.3 1525.7 208.5 1530.7 C201.8 1535.6 198.6 1553.6 193.7 1560.4 C188.7 1567.1 184.3 1568.3 178.8 1571.1 C173.2 1573.9 166.9 1575.7 160.3 1577 C153.8 1578.3 150.4 1579.5 139.3 1578.9 C128.3 1578.3 111.8 1577.6 93.8 1573.4 C75.7 1569.2 52.5 1561.9 31.3 1553.6 C10.1 1545.3 -7.6 1536.5 -33.4 1523.3 C-59.2 1510.2 -98.1 1487.4 -123.4 1474.5 C-148.8 1461.7 -170.2 1451.4 -185.5 1446.2 C-200.7 1441 -200.5 1442.5 -215.2 1443.2 C-229.9 1443.9 -255.3 1449.1 -273.5 1450.6 C-291.7 1452.1 -300.4 1453.6 -324.4 1452.3 C-348.5 1450.9 -399.9 1443.8 -418 1442.5 C-436.1 1441.1 -421.7 1439.1 -433.1 1444.2 C-444.6 1449.4 -459.5 1457.2 -486.8 1473.5 C-514 1489.7 -576.2 1529.2 -596.8 1541.5 C-617.5 1553.9 -605.6 1546.1 -610.6 1547.4 C-615.6 1548.6 -624.6 1544.1 -626.9 1549 C-629.3 1553.9 -626 1567.9 -624.6 1577 C-623.2 1586.1 -622.9 1591.7 -618.4 1603.8 C-613.9 1615.8 -605.6 1636.2 -597.6 1649.5 C-589.6 1662.8 -581.9 1672.1 -570.3 1683.4 C-558.6 1694.6 -537.2 1708.1 -527.7 1717.2 C-518.3 1726.3 -515.8 1730.5 -513.4 1737.9 C-511.1 1745.3 -511.8 1754.7 -513.5 1761.5 C-515.3 1768.4 -519.2 1774.3 -523.9 1779 C-528.7 1783.7 -535.7 1787.1 -542.1 1790 C-548.5 1792.8 -549.5 1794.4 -562.5 1796.1 C-575.4 1797.8 -603.1 1800.3 -619.6 1800.1 C-636.1 1799.8 -649.5 1797.1 -661.5 1794.4 C-673.4 1791.7 -682.9 1787.7 -691.4 1783.9 C-699.8 1780 -704.9 1773.7 -712.1 1771.4 C-719.3 1769.1 -728.1 1771.1 -734.6 1770 C-741.2 1769 -744.6 1768.1 -751.5 1765.1 C-758.3 1762.1 -765.9 1759 -775.8 1751.8 C-785.7 1744.6 -801.1 1731.7 -810.8 1721.9 C-820.6 1712.1 -827.5 1702.5 -834.2 1693.1 C-840.9 1683.7 -846.2 1675 -851.2 1665.5 C-856.3 1656 -860.5 1646.7 -864.4 1635.9 C-868.3 1625.1 -872.1 1618.2 -874.5 1600.6 C-876.8 1583 -871.7 1543.8 -878.4 1530.3 C-885.2 1516.8 -904.2 1523.6 -914.8 1519.5 C-925.4 1515.4 -933.5 1511.1 -941.9 1505.7 C-950.3 1500.3 -959 1494 -965.3 1487 C-971.6 1480 -977 1469.8 -979.8 1463.7 C-982.6 1457.7 -982 1455.1 -982.1 1450.5 C-982.2 1445.9 -982 1440.5 -980.4 1436.3 C-978.7 1432 -975.9 1428.6 -972.3 1425.2 C-968.8 1421.9 -969.2 1420.6 -959 1416 C-948.7 1411.5 -923.1 1405.2 -910.7 1398.1 C-898.4 1391 -890.5 1381.2 -884.9 1373.4 C-879.3 1365.7 -878 1359.4 -877.2 1351.4 C-876.3 1343.3 -876.7 1334.2 -879.9 1325 C-883.2 1315.8 -885 1311.7 -896.6 1296 C-908.2 1280.3 -937.4 1247.2 -949.5 1231 C-961.6 1214.8 -964.3 1208.2 -969.3 1198.9 C-974.4 1189.5 -973.7 1177.6 -979.9 1175 C-986.1 1172.4 -1000.2 1182.3 -1006.6 1183.5 C-1013 1184.7 -1014.3 1183.5 -1018.5 1182.2 C-1022.6 1180.9 -1027.1 1179.3 -1031.5 1175.9 C-1035.9 1172.5 -1039.1 1170.1 -1044.8 1161.9 C-1050.6 1153.6 -1059.3 1139.7 -1066.1 1126.4 C-1072.9 1113.1 -1080.8 1094.8 -1085.5 1082.3 C-1090.2 1069.8 -1091.6 1067.5 -1094.2 1051.7 C-1096.7 1035.9 -1100.1 1003.5 -1101.1 987.6 C-1102 971.6 -1100.9 966.6 -1099.8 956 C-1098.6 945.3 -1098.9 940.7 -1094 923.7 C-1089.1 906.6 -1073.7 865.9 -1070.3 853.6 C-1066.9 841.3 -1069.3 851.4 -1073.4 849.8 C-1077.5 848.2 -1085.3 848 -1094.8 843.9 C-1104.4 839.9 -1118.7 834 -1130.4 825.7 C-1142.1 817.4 -1157.7 800.9 -1164.9 794 C-1172.2 787.1 -1171 788.4 -1173.9 784 C-1176.9 779.6 -1180.4 772.9 -1182.5 767.4 C-1184.5 761.9 -1185.9 756.3 -1186.1 751 C-1186.4 745.8 -1185.8 740.5 -1184 735.8 C-1182.2 731 -1179.4 726.4 -1175.2 722.5 C-1171.1 718.5 -1170.5 714.6 -1158.9 712 C-1147.4 709.4 -1121.5 710.8 -1106 707.1 C-1090.4 703.4 -1079.6 699.1 -1065.6 689.8 C-1051.6 680.4 -1032.2 661.5 -1021.9 651 C-1011.7 640.5 -1007.7 632.1 -1004.1 626.5 C-1000.5 620.8 -1000.3 621.2 -1000.5 617 C-1000.6 612.9 -1001.4 606 -1005 601.4 C-1008.6 596.8 -1017.2 593.8 -1022.2 589.6 C-1027.3 585.3 -1031.8 580.7 -1035.1 575.7 C-1038.4 570.8 -1041 565.6 -1042 560.1 C-1043 554.6 -1043 548.8 -1041.2 542.8 C-1039.3 536.8 -1036.7 530.5 -1030.9 524 C-1025.1 517.5 -1014.6 509.6 -1006.4 503.8 C-998.2 497.9 -995 495.4 -981.6 488.8 C-968.2 482.2 -935.4 479.4 -926 464.1 C-916.7 448.9 -927.4 418.1 -925.3 397.4 C-923.1 376.8 -919.1 359 -913.3 340.3 C-907.6 321.5 -896.3 296.7 -890.9 285 C-885.5 273.3 -884.7 274.3 -881.1 269.9 C-877.4 265.5 -874.5 261.7 -868.9 258.7 C-863.2 255.7 -853.4 252.4 -847.1 252 C-840.8 251.5 -835.3 254.1 -830.8 256 C-826.3 257.8 -825.1 258.2 -820.1 263.1 C-815.1 268 -804.8 281.7 -800.8 285.5 C-796.8 289.4 -804.3 292.7 -796.3 286.3 C-788.2 280 -769.6 260.8 -752.5 247.5 C-735.3 234.1 -713.1 218.5 -693.5 206.2 C-673.9 193.9 -655.3 183.7 -634.9 173.6 C-614.6 163.5 -591.6 153.4 -571.5 145.9 C-551.4 138.4 -532.7 133.3 -514.2 128.8 C-495.7 124.3 -476.4 120.8 -460.6 118.7 C-444.8 116.6 -436.6 116 -419.7 116.2 C-402.8 116.3 -374.4 126 -359.2 119.6 C-344.1 113.2 -340.3 89.5 -328.9 77.8 C-317.5 66 -302.1 56.2 -290.9 49.3 C-279.7 42.4 -271.8 40.1 -261.6 36.5 C-251.5 33 -254.3 32.4 -230.2 27.9 C-206.1 23.4 -146.8 19.8 -116.8 9.6 C-86.9 -0.7 -64.7 -26 -50.6 -33.5 C-36.5 -40.9 -38 -36 -32.1 -35.1 C-26.3 -34.2 -20.4 -31.9 -15.6 -28 C-10.9 -24 -6.2 -16.3 -3.6 -11.7 C-1 -7 -0.9 -7.4 0 0 Z" fill="#7b9a56" transform="translate(1311.9375,269)"/>
<path d="M0 0 C6.8 10.1 24.2 43.3 37 63.2 C49.8 83 61.6 101.1 77 119 C92.4 136.9 113.3 155.9 129.3 170.5 C145.3 185.2 157.2 194.9 173 207 C188.8 219.1 214.7 234.9 224.4 243.3 C234.1 251.7 230 251.3 231 257.2 C232 263.1 231.8 269.2 230.4 279 C228.9 288.7 225.8 302.3 222.2 315.7 C218.6 329.2 212.9 347.8 208.5 359.7 C204.2 371.7 200.8 378.5 196 387.5 C191.3 396.4 187.2 403.7 180.1 413.3 C173 423 165.2 434.4 153.5 445.4 C141.9 456.3 114.8 472.4 110 479 C105.2 485.6 118.2 483.4 124.7 485.1 C131.2 486.7 136.7 489.1 148.8 488.9 C160.8 488.7 190.3 480.8 197 484 C203.7 487.2 193.4 499.2 188.9 508 C184.4 516.7 177 528 170.1 536.3 C163.2 544.6 156.4 550.6 147.5 557.8 C138.6 564.9 127.3 573 116.4 579 C105.5 585 87.7 591.1 82 594 C76.3 596.9 77.6 594.3 82.4 596.5 C87.2 598.7 99.3 604.1 110.9 607.2 C122.5 610.3 150.1 609.6 152 615 C153.9 620.4 133.6 631 122.1 639.3 C110.7 647.6 102.4 654.6 83.3 664.8 C64.3 674.9 30.1 691.1 7.9 700.1 C-14.3 709.1 -31.9 713.7 -50 718.7 C-68.1 723.8 -79.1 727 -100.7 730.4 C-122.2 733.8 -150.9 738.3 -179.2 739.3 C-207.6 740.2 -246.7 737.9 -271 736 C-295.3 734.1 -306 731.8 -324.8 728.1 C-343.7 724.4 -358.7 722.2 -384.1 714 C-409.6 705.9 -461.2 686 -477.5 679.2 C-493.8 672.3 -477 676.1 -482 673 C-487 669.9 -496.3 667.4 -507.5 660.4 C-518.7 653.5 -539.7 639.1 -549.1 631.6 C-558.5 624 -567.9 618.7 -564 615 C-560.1 611.3 -536.8 612.9 -526 609.4 C-515.1 605.9 -496.8 599.7 -499 594 C-501.2 588.3 -526.7 582.5 -538.9 575 C-551.2 567.6 -562.8 558.2 -572.4 549.4 C-582 540.6 -589.9 532.3 -596.3 522.2 C-602.7 512.1 -617.7 493.8 -611 489 C-604.3 484.2 -568.8 493.4 -556.2 493.5 C-543.6 493.5 -540.4 491 -535.2 489.2 C-530 487.5 -518.8 490.3 -525 483 C-531.2 475.7 -561.6 455.2 -572.3 445.6 C-583 436.1 -583.3 433.9 -589.3 425.7 C-595.3 417.5 -602.4 406.3 -608.1 396.3 C-613.8 386.2 -618.7 377.4 -623.6 365.5 C-628.4 353.6 -633.2 341.1 -637 325 C-640.9 308.9 -645.8 279.4 -646.9 268.9 C-648 258.5 -653.9 269 -643.7 262.3 C-633.5 255.6 -604.9 241.1 -585.8 228.5 C-566.7 216 -543.5 198.9 -529 187 C-514.5 175.1 -509.8 168.9 -499 157 C-488.2 145.1 -474.4 128.4 -464.4 115.9 C-454.4 103.4 -448.9 97.3 -439 82 C-429.1 66.7 -415.8 17.2 -405 24 C-394.2 30.8 -383.2 99.1 -374 123 C-364.8 146.9 -359.1 153 -350.1 167.4 C-341.1 181.8 -326.4 199 -320.1 209.3 C-313.8 219.6 -313.3 220 -312.3 229.2 C-311.2 238.5 -311.1 247.2 -313.9 264.9 C-316.8 282.6 -325.5 320.1 -329.4 335.5 C-333.2 350.9 -341.1 355.5 -337 357 C-332.9 358.5 -316.1 350.5 -304.7 344.8 C-293.3 339.1 -280.6 331.1 -268.5 322.6 C-256.4 314.1 -244.9 305.1 -232.3 293.8 C-219.8 282.5 -199.4 250.5 -193 255 C-186.6 259.5 -197.7 312.7 -194 321 C-190.3 329.3 -180.8 313.5 -171 305 C-161.2 296.5 -152.5 291.8 -135 270 C-117.5 248.2 -83.6 202.7 -66 174.1 C-48.4 145.4 -38.2 118.8 -29.4 97.8 C-20.7 76.8 -17.8 64.2 -13.6 48.3 C-9.3 32.4 -6 10.4 -3.7 2.4 C-1.5 -5.6 -6.8 -10.1 0 0 Z" fill="#EAE1BF" transform="translate(1204,944)"/>
<path d="M0 0 C0.9 7.4 2.7 19.3 1.9 32.5 C1.1 45.8 -1.9 66.7 -4.9 79.5 C-7.8 92.3 -9.6 96.8 -15.6 109.1 C-21.6 121.4 -47.3 141.2 -40.8 153.3 C-34.4 165.5 -0.2 169.4 23.1 182 C46.3 194.6 76.9 214.1 98.5 228.9 C120.2 243.7 132.2 251.9 153.1 271 C173.9 290.1 201.5 317.9 223.4 343.8 C245.4 369.7 269.2 403.4 284.7 426.4 C300.2 449.5 308.7 466.8 316.4 481.9 C324.2 497.1 319.7 484.9 331.3 517.2 C343 549.5 373.6 641.5 386.5 675.7 C399.3 709.9 401.5 709.1 408.4 722.4 C415.3 735.6 421.5 745.5 428 755.1 C434.5 764.7 440.3 772.3 447.4 780 C454.5 787.6 460.2 794.1 470.5 800.8 C480.8 807.5 498.8 816 509.1 820 C519.4 824 526.1 821.9 532.3 824.7 C538.6 827.5 543.2 832.9 546.5 836.8 C549.7 840.8 550.7 844.1 551.8 848.3 C552.9 852.5 554.6 855.5 553.1 862 C551.5 868.5 548.9 877.5 542.3 887.1 C535.6 896.7 524.4 910.7 513.1 919.7 C501.9 928.7 485.8 936.4 474.9 941.3 C464.1 946.2 455.9 947.6 448.1 949 C440.3 950.4 430.6 942.4 428.1 950 C425.5 957.6 432.4 980.5 432.8 994.6 C433.1 1008.6 432.6 1018.5 430.2 1034.2 C427.8 1050 422.8 1073.6 418.4 1089.1 C414.1 1104.5 411.1 1112.9 404 1126.9 C396.9 1140.8 386.2 1159.3 375.8 1172.7 C365.5 1186 352.8 1193.4 342.1 1207 C331.3 1220.6 325.6 1235.8 311.3 1254.5 C296.9 1273.1 266.7 1304.7 255.9 1318.8 C245.2 1332.9 248.6 1334 246.8 1339 C245.1 1344 245.1 1344.1 245.4 1349 C245.6 1353.8 246.1 1362.1 248.5 1368.2 C250.9 1374.3 254.6 1380.3 259.6 1385.8 C264.6 1391.3 267.4 1396 278.4 1401 C289.4 1406.1 315.1 1411.3 325.6 1416.1 C336.1 1420.8 337.8 1424.2 341.5 1429.6 C345.1 1435 347.4 1441.9 347.6 1448.6 C347.9 1455.4 346.6 1462.8 343.1 1470 C339.5 1477.2 332.9 1485.3 326.4 1491.6 C320 1497.8 316.1 1501.5 304.4 1507.4 C292.7 1513.2 268 1522.8 256.3 1526.6 C244.6 1530.5 242.1 1529.8 234.1 1530.5 C226.2 1531.2 215.3 1525.7 208.5 1530.7 C201.8 1535.6 198.6 1553.6 193.7 1560.4 C188.7 1567.1 184.3 1568.3 178.8 1571.1 C173.2 1573.9 166.9 1575.7 160.3 1577 C153.8 1578.3 150.4 1579.5 139.3 1578.9 C128.3 1578.3 111.8 1577.6 93.8 1573.4 C75.7 1569.2 52.5 1561.9 31.3 1553.6 C10.1 1545.3 -7.6 1536.5 -33.4 1523.3 C-59.2 1510.2 -98.1 1487.4 -123.4 1474.5 C-148.8 1461.7 -170.2 1451.4 -185.5 1446.2 C-200.7 1441 -200.5 1442.5 -215.2 1443.2 C-229.9 1443.9 -255.3 1449.1 -273.5 1450.6 C-291.7 1452.1 -300.4 1453.6 -324.4 1452.3 C-348.5 1450.9 -399.9 1443.8 -418 1442.5 C-436.1 1441.1 -421.7 1439.1 -433.1 1444.2 C-444.6 1449.4 -459.5 1457.2 -486.8 1473.5 C-514 1489.7 -576.2 1529.2 -596.8 1541.5 C-617.5 1553.9 -605.6 1546.1 -610.6 1547.4 C-615.6 1548.6 -624.6 1544.1 -626.9 1549 C-629.3 1553.9 -626 1567.9 -624.6 1577 C-623.2 1586.1 -622.9 1591.7 -618.4 1603.8 C-613.9 1615.8 -605.6 1636.2 -597.6 1649.5 C-589.6 1662.8 -581.9 1672.1 -570.3 1683.4 C-558.6 1694.6 -537.2 1708.1 -527.7 1717.2 C-518.3 1726.3 -515.8 1730.5 -513.4 1737.9 C-511.1 1745.3 -511.8 1754.7 -513.5 1761.5 C-515.3 1768.4 -519.2 1774.3 -523.9 1779 C-528.7 1783.7 -535.7 1787.1 -542.1 1790 C-548.5 1792.8 -549.5 1794.4 -562.5 1796.1 C-575.4 1797.8 -603.1 1800.3 -619.6 1800.1 C-636.1 1799.8 -649.5 1797.1 -661.5 1794.4 C-673.4 1791.7 -682.9 1787.7 -691.4 1783.9 C-699.8 1780 -704.9 1773.7 -712.1 1771.4 C-719.3 1769.1 -728.1 1771.1 -734.6 1770 C-741.2 1769 -744.6 1768.1 -751.5 1765.1 C-758.3 1762.1 -765.9 1759 -775.8 1751.8 C-785.7 1744.6 -801.1 1731.7 -810.8 1721.9 C-820.6 1712.1 -827.5 1702.5 -834.2 1693.1 C-840.9 1683.7 -846.2 1675 -851.2 1665.5 C-856.3 1656 -860.5 1646.7 -864.4 1635.9 C-868.3 1625.1 -872.1 1618.2 -874.5 1600.6 C-876.8 1583 -871.7 1543.8 -878.4 1530.3 C-885.2 1516.8 -904.2 1523.6 -914.8 1519.5 C-925.4 1515.4 -933.5 1511.1 -941.9 1505.7 C-950.3 1500.3 -959 1494 -965.3 1487 C-971.6 1480 -977 1469.8 -979.8 1463.7 C-982.6 1457.7 -982 1455.1 -982.1 1450.5 C-982.2 1445.9 -982 1440.5 -980.4 1436.3 C-978.7 1432 -975.9 1428.6 -972.3 1425.2 C-968.8 1421.9 -969.2 1420.6 -959 1416 C-948.7 1411.5 -923.1 1405.2 -910.7 1398.1 C-898.4 1391 -890.5 1381.2 -884.9 1373.4 C-879.3 1365.7 -878 1359.4 -877.2 1351.4 C-876.3 1343.3 -876.7 1334.2 -879.9 1325 C-883.2 1315.8 -885 1311.7 -896.6 1296 C-908.2 1280.3 -937.4 1247.2 -949.5 1231 C-961.6 1214.8 -964.3 1208.2 -969.3 1198.9 C-974.4 1189.5 -973.7 1177.6 -979.9 1175 C-986.1 1172.4 -1000.2 1182.3 -1006.6 1183.5 C-1013 1184.7 -1014.3 1183.5 -1018.5 1182.2 C-1022.6 1180.9 -1027.1 1179.3 -1031.5 1175.9 C-1035.9 1172.5 -1039.1 1170.1 -1044.8 1161.9 C-1050.6 1153.6 -1059.3 1139.7 -1066.1 1126.4 C-1072.9 1113.1 -1080.8 1094.8 -1085.5 1082.3 C-1090.2 1069.8 -1091.6 1067.5 -1094.2 1051.7 C-1096.7 1035.9 -1100.1 1003.5 -1101.1 987.6 C-1102 971.6 -1100.9 966.6 -1099.8 956 C-1098.6 945.3 -1098.9 940.7 -1094 923.7 C-1089.1 906.6 -1073.7 865.9 -1070.3 853.6 C-1066.9 841.3 -1069.3 851.4 -1073.4 849.8 C-1077.5 848.2 -1085.3 848 -1094.8 843.9 C-1104.4 839.9 -1118.7 834 -1130.4 825.7 C-1142.1 817.4 -1157.7 800.9 -1164.9 794 C-1172.2 787.1 -1171 788.4 -1173.9 784 C-1176.9 779.6 -1180.4 772.9 -1182.5 767.4 C-1184.5 761.9 -1185.9 756.3 -1186.1 751 C-1186.4 745.8 -1185.8 740.5 -1184 735.8 C-1182.2 731 -1179.4 726.4 -1175.2 722.5 C-1171.1 718.5 -1170.5 714.6 -1158.9 712 C-1147.4 709.4 -1121.5 710.8 -1106 707.1 C-1090.4 703.4 -1079.6 699.1 -1065.6 689.8 C-1051.6 680.4 -1032.2 661.5 -1021.9 651 C-1011.7 640.5 -1007.7 632.1 -1004.1 626.5 C-1000.5 620.8 -1000.3 621.2 -1000.5 617 C-1000.6 612.9 -1001.4 606 -1005 601.4 C-1008.6 596.8 -1017.2 593.8 -1022.2 589.6 C-1027.3 585.3 -1031.8 580.7 -1035.1 575.7 C-1038.4 570.8 -1041 565.6 -1042 560.1 C-1043 554.6 -1043 548.8 -1041.2 542.8 C-1039.3 536.8 -1036.7 530.5 -1030.9 524 C-1025.1 517.5 -1014.6 509.6 -1006.4 503.8 C-998.2 497.9 -995 495.4 -981.6 488.8 C-968.2 482.2 -935.4 479.4 -926 464.1 C-916.7 448.9 -927.4 418.1 -925.3 397.4 C-923.1 376.8 -919.1 359 -913.3 340.3 C-907.6 321.5 -896.3 296.7 -890.9 285 C-885.5 273.3 -884.7 274.3 -881.1 269.9 C-877.4 265.5 -874.5 261.7 -868.9 258.7 C-863.2 255.7 -853.4 252.4 -847.1 252 C-840.8 251.5 -835.3 254.1 -830.8 256 C-826.3 257.8 -825.1 258.2 -820.1 263.1 C-815.1 268 -804.8 281.7 -800.8 285.5 C-796.8 289.4 -804.3 292.7 -796.3 286.3 C-788.2 280 -769.6 260.8 -752.5 247.5 C-735.3 234.1 -713.1 218.5 -693.5 206.2 C-673.9 193.9 -655.3 183.7 -634.9 173.6 C-614.6 163.5 -591.6 153.4 -571.5 145.9 C-551.4 138.4 -532.7 133.3 -514.2 128.8 C-495.7 124.3 -476.4 120.8 -460.6 118.7 C-444.8 116.6 -436.6 116 -419.7 116.2 C-402.8 116.3 -374.4 126 -359.2 119.6 C-344.1 113.2 -340.3 89.5 -328.9 77.8 C-317.5 66 -302.1 56.2 -290.9 49.3 C-279.7 42.4 -271.8 40.1 -261.6 36.5 C-251.5 33 -254.3 32.4 -230.2 27.9 C-206.1 23.4 -146.8 19.8 -116.8 9.6 C-86.9 -0.7 -64.7 -26 -50.6 -33.5 C-36.5 -40.9 -38 -36 -32.1 -35.1 C-26.3 -34.2 -20.4 -31.9 -15.6 -28 C-10.9 -24 -6.2 -16.3 -3.6 -11.7 C-1 -7 -0.9 -7.4 0 0 Z M-44.9 4 C-48.6 8 -55.4 16.9 -64.9 23 C-74.4 29.1 -91.3 36.7 -102 40.8 C-112.7 45 -108.5 44.1 -129.4 47.8 C-150.3 51.4 -203.5 57.6 -227.3 62.8 C-251.2 68 -260.9 73.8 -272.4 79.2 C-284 84.5 -290.1 89.6 -296.6 94.9 C-303.1 100.2 -306.1 103.2 -311.6 111 C-317.1 118.8 -325.6 132.6 -329.5 141.8 C-333.4 150.9 -330.4 163.3 -334.9 166 C-339.5 168.7 -349.3 159.8 -356.9 157.7 C-364.6 155.6 -364.4 154 -380.7 153.2 C-397 152.5 -432.9 151.5 -454.8 153.3 C-476.8 155.1 -490 157.8 -512.2 163.9 C-534.5 170.1 -569 182.6 -588.5 190.3 C-608.1 197.9 -611.2 199.7 -629.8 209.8 C-648.4 220 -679.2 237 -700.4 251.4 C-721.6 265.7 -739.8 280.9 -756.9 296 C-774.1 311.1 -789.7 342.2 -803.5 341.9 C-817.3 341.6 -831.8 302.8 -839.9 294.1 C-847.9 285.5 -847.2 285.6 -851.9 290 C-856.6 294.4 -863.1 309.4 -868 320.4 C-872.9 331.3 -877.8 343.2 -881.5 355.8 C-885.2 368.3 -888.8 380.3 -890.1 395.7 C-891.4 411.2 -889.9 438.1 -889 448.5 C-888.2 458.9 -885.6 454.6 -884.9 458 C-884.3 461.4 -887.1 463.3 -885.2 468.8 C-883.2 474.4 -875.5 486.4 -873.5 491.4 C-871.4 496.5 -867.8 497.6 -872.9 499 C-878.1 500.4 -890.8 497.2 -904.4 499.6 C-918 502 -945.1 509.9 -954.8 513.3 C-964.6 516.7 -959.3 518.1 -962.9 520 C-966.6 521.9 -969.3 520.1 -976.7 525 C-984 529.9 -1002.1 544.4 -1007.1 549.4 C-1012 554.4 -1008.8 552.6 -1006.4 555.1 C-1004.1 557.7 -999.7 560.7 -993.1 564.8 C-986.6 568.9 -975 575.8 -967 579.7 C-959 583.5 -945.9 580.9 -944.9 588 C-943.9 595.1 -953.9 610 -960.9 622 C-967.9 634 -976.3 646.6 -986.9 660.3 C-997.6 673.9 -1014.6 693.7 -1024.9 704 C-1035.3 714.3 -1040.5 717.1 -1048.9 722 C-1057.4 726.9 -1064.8 730.2 -1075.6 733.7 C-1086.5 737.2 -1100.7 741 -1113.8 743.1 C-1126.8 745.1 -1147.6 744.3 -1153.9 746 C-1160.3 747.7 -1155.6 747.7 -1151.8 753.4 C-1147.9 759 -1139 771.9 -1130.7 780 C-1122.4 788.1 -1114.6 795.4 -1101.9 802 C-1089.3 808.6 -1069.4 816.5 -1054.7 819.5 C-1040.1 822.5 -1015.1 808.6 -1013.9 820 C-1012.8 831.4 -1039.3 866.6 -1047.6 888 C-1055.9 909.5 -1060.7 930.4 -1063.8 948.9 C-1066.9 967.4 -1067.8 980.5 -1066.3 999.2 C-1064.9 1017.9 -1058.7 1045.9 -1055.1 1061.2 C-1051.4 1076.5 -1048.6 1081.2 -1044.2 1090.9 C-1039.8 1100.5 -1033.8 1110.6 -1028.9 1119.1 C-1024.1 1127.6 -1018.4 1137 -1014.9 1142 C-1011.4 1147 -1009.6 1148 -1007.9 1149 C-1006.3 1150 -1005.3 1163.5 -1005.2 1148 C-1005 1132.4 -1007.8 1076.3 -1007.3 1055.7 C-1006.8 1035.1 -1005.1 1035.1 -1002.4 1024.5 C-999.7 1013.9 -993.3 990.7 -990.9 992 C-988.5 993.3 -989.6 1018.8 -988 1032.2 C-986.3 1045.6 -983.7 1059.5 -980.9 1072.2 C-978.1 1084.8 -976.1 1093.5 -971.1 1107.9 C-966.2 1122.4 -955 1150.2 -951.1 1158.9 C-947.2 1167.6 -950.2 1155.9 -947.9 1160 C-945.7 1164.1 -943.8 1172.8 -937.5 1183.5 C-931.3 1194.2 -923.1 1208.1 -910.3 1224.2 C-897.6 1240.3 -872.2 1262.7 -860.9 1280 C-849.7 1297.3 -845.4 1312.9 -842.9 1328 C-840.4 1343.1 -844.4 1360 -845.9 1370.4 C-847.4 1380.7 -848.8 1383.4 -851.9 1390 C-855.1 1396.6 -856.6 1402.2 -864.9 1410 C-873.3 1417.8 -888.6 1430.6 -901.9 1437 C-915.3 1443.4 -937.5 1445.6 -945 1448.4 C-952.5 1451.2 -950.1 1449.7 -946.9 1454 C-943.8 1458.3 -934.6 1468.2 -925.9 1473.9 C-917.2 1479.7 -904.4 1485.1 -894.6 1488.5 C-884.8 1491.9 -876.5 1493.6 -867 1494.4 C-857.6 1495.1 -841.8 1487.1 -837.9 1493 C-834.1 1498.9 -842.9 1518.2 -844 1530.1 C-845 1542 -844.8 1553.1 -844.1 1564.5 C-843.3 1575.8 -841.8 1587 -839.4 1597.9 C-837 1608.8 -833.7 1619.6 -829.5 1630 C-825.3 1640.5 -820.2 1650.3 -814 1660.5 C-807.8 1670.7 -800.5 1681.7 -792.3 1691.1 C-784.1 1700.5 -773.5 1710.4 -764.9 1717 C-756.4 1723.6 -747.8 1728.2 -740.9 1731 C-734.1 1733.8 -726.8 1735.8 -723.9 1734 C-721.1 1732.2 -728.4 1718.9 -723.9 1720 C-719.5 1721.1 -706 1734.8 -697.3 1740.3 C-688.7 1745.9 -680.6 1750 -671.9 1753.5 C-663.3 1757.1 -654.7 1759.5 -645.2 1761.6 C-635.8 1763.7 -627.7 1765.8 -615.4 1766.2 C-603.1 1766.6 -583.1 1766.5 -571.4 1763.8 C-559.6 1761.1 -548.6 1753.4 -544.9 1750 C-541.3 1746.6 -541.7 1749.2 -549.3 1743.2 C-557 1737.2 -582 1720.9 -590.9 1714 C-599.9 1707.1 -599.6 1706 -602.9 1702 C-606.3 1698 -609.1 1692 -610.9 1690 C-612.8 1688 -609.3 1696.7 -613.9 1690 C-618.6 1683.3 -632.7 1662.2 -638.9 1650 C-645.2 1637.8 -648.1 1628.2 -651.5 1617 C-654.9 1605.7 -658 1598 -659.2 1582.5 C-660.5 1567 -659.3 1534.3 -658.9 1524 C-658.6 1513.7 -661 1522.4 -656.9 1521 C-652.9 1519.6 -642.9 1518.3 -634.6 1515.5 C-626.2 1512.6 -632.1 1517.9 -607.1 1503.9 C-582.1 1489.9 -513.1 1447.5 -484.5 1431.5 C-455.9 1415.5 -446.3 1412.3 -435.4 1408 C-424.4 1403.7 -431.2 1404.9 -418.5 1405.7 C-405.9 1406.5 -379.9 1411.4 -359.7 1412.9 C-339.5 1414.3 -324.5 1415.7 -297.2 1414.3 C-269.8 1412.9 -226.4 1400.1 -195.5 1404.4 C-164.6 1408.8 -150.9 1421.5 -112 1440.5 C-73.1 1459.5 5.1 1502.7 37.9 1518.2 C70.6 1533.8 70.8 1530.3 84.3 1533.9 C97.8 1537.5 106.5 1538.8 118.9 1539.8 C131.2 1540.8 150.4 1541.2 158.4 1540 C166.4 1538.7 165 1535.5 167 1532.4 C168.9 1529.3 173 1530.5 170.3 1521.4 C167.7 1512.3 151.5 1483.7 151.1 1478 C150.6 1472.3 161.3 1484.3 167.6 1486.9 C174 1489.4 178 1492 189.1 1493.3 C200.3 1494.7 219.4 1497 234.3 1494.9 C249.3 1492.9 268.8 1484.9 278.9 1481.1 C289 1477.3 289.5 1476.6 295.1 1472 C300.6 1467.4 309.3 1457.6 312.3 1453.6 C315.3 1449.6 317.6 1449.8 313.1 1448 C308.5 1446.2 293 1445 285.2 1442.9 C277.5 1440.8 275.9 1441.2 266.5 1435.2 C257.2 1429.2 238.5 1418.3 229.1 1407 C219.6 1395.7 213.5 1377.3 209.9 1367.4 C206.3 1357.5 207.2 1354.1 207.4 1347.5 C207.6 1341 207.1 1337.2 211.1 1328 C215 1318.8 221.7 1304.9 231.1 1292.6 C240.4 1280.3 251.9 1273.4 267.1 1254 C282.2 1234.6 311.1 1190.2 322.1 1176 C333 1161.8 328 1173.7 332.8 1169 C337.6 1164.4 344.1 1158.4 351.1 1148 C358 1137.6 368.1 1121.1 374.4 1106.9 C380.8 1092.7 385.3 1080.7 389.2 1062.6 C393 1044.4 396.6 1016.2 397.7 998 C398.8 979.7 397.9 967.6 395.8 953.1 C393.7 938.6 381.2 917 385.1 911 C388.9 905 406.4 917.2 418.8 916.9 C431.2 916.6 447.2 913.2 459.5 909 C471.9 904.7 483.5 898.3 492.8 891.5 C502 884.7 510.9 873.3 515.1 868 C519.2 862.7 523.6 863.2 517.5 859.5 C511.5 855.7 490.1 850.3 478.7 845.4 C467.3 840.5 460.3 838.6 449.1 830 C437.8 821.4 419.5 803 411.1 794 C402.7 785 403.3 782.8 398.6 775.8 C394 768.8 390.6 766.4 383.1 752 C375.6 737.6 366.7 723.8 353.6 689.5 C340.5 655.2 317 580.1 304.5 546.2 C291.9 512.3 288.7 506.6 278.1 486.2 C267.5 465.9 255.2 444.5 241 424 C226.9 403.4 212.6 384.8 193.1 363 C173.6 341.2 143.3 311.2 124 293.4 C104.6 275.5 99.9 271.1 77.1 256 C54.2 240.9 17.5 218 -12.9 202.8 C-43.4 187.6 -96.4 177.2 -105.6 164.7 C-114.8 152.2 -78.3 141 -67.9 128 C-57.6 115 -49.1 98.8 -43.7 86.8 C-38.2 74.8 -37.2 68.3 -35.3 56.1 C-33.5 43.8 -32.2 22.9 -32.5 13.3 C-32.8 3.6 -35.2 0.4 -36.9 -2 C-38.7 -4.4 -41.6 -2.2 -42.9 -1.2 C-44.2 -0.2 -41.3 0 -44.9 4 Z" fill="#3F5A48" transform="translate(1311.9375,269)"/>
<path d="M0 0 C2.5 8.1 7.2 25 9.3 36.7 C11.5 48.3 12 55.8 13 70 C14 84.2 16.1 107 15.6 121.6 C15.2 136.2 11.8 150 10.2 157.6 C8.5 165.1 6.5 164.3 6 167 C5.5 169.7 8.8 164.4 7 174 C5.2 183.6 -2.2 216.1 -4.7 224.8 C-7.2 233.5 -6.8 223.5 -8 226 C-9.2 228.5 -7.1 231.9 -11.6 239.8 C-16.1 247.6 -30.9 266.5 -35 273 C-39.1 279.5 -33.3 275.2 -36 279 C-38.7 282.8 -49.5 292 -51.3 296.1 C-53.1 300.1 -51.2 300.9 -46.8 303.2 C-42.4 305.6 -30.6 307.5 -25 310 C-19.4 312.5 -16.3 316.5 -13 318 C-9.7 319.5 -13.3 315.7 -5 319 C3.3 322.3 29.5 333.3 37 338 C44.5 342.7 45 340.3 40 347 C35 353.7 17.7 369.8 7 378 C-3.7 386.2 -10.5 390.5 -24 396 C-37.5 401.5 -59.3 408.1 -74 411 C-88.7 413.9 -103.6 413.2 -112.2 413.2 C-120.7 413.2 -122.1 410.8 -125.4 411.1 C-128.7 411.4 -132.2 409.5 -132 415 C-131.8 420.5 -125.8 434.5 -124 444 C-122.2 453.5 -121.4 461 -121 472 C-120.6 483 -120.3 502.4 -121.3 509.9 C-122.3 517.4 -125.2 515.7 -127 517 C-128.8 518.3 -130.4 518.4 -132.1 517.5 C-133.8 516.7 -133.7 513.6 -137 512 C-140.3 510.4 -147.8 510.4 -151.6 508.2 C-155.5 506 -155.6 502.2 -160 499 C-164.4 495.8 -174 492.5 -178 489 C-182 485.5 -180.7 481 -184 478 C-187.3 475 -195.7 472.8 -198 471 C-200.3 469.2 -197 468.2 -198 467 C-199 465.8 -201.9 466.6 -204.2 463.6 C-206.6 460.6 -209 452.8 -212 449 C-215 445.2 -220.3 443.2 -222 441 C-223.7 438.8 -221 436.6 -222 436 C-223 435.4 -217.6 431 -227.8 437.1 C-238 443.3 -270.3 465.9 -283 473 C-295.7 480.1 -297.8 478.7 -304 480 C-310.2 481.3 -316.5 481.8 -320 481 C-323.5 480.3 -323.5 479 -324.9 475.6 C-326.4 472.1 -327.8 468.5 -328.8 460.4 C-329.9 452.2 -331.2 438.3 -331.1 426.6 C-331 414.9 -328 397.3 -328.4 390.1 C-328.7 382.8 -327.5 384.3 -333 383 C-338.5 381.7 -351.6 383.4 -361.2 382.4 C-370.9 381.4 -383.7 379.2 -390.7 377.1 C-397.7 375 -397.9 371.7 -403 370 C-408.1 368.3 -413.8 369 -421.1 366.8 C-428.5 364.7 -437.8 361.8 -447.2 356.8 C-456.6 351.9 -472.5 341.7 -477.7 337.4 C-482.8 333.1 -482.3 335.6 -478 331 C-473.7 326.4 -460.9 315.9 -452 310 C-443.1 304.1 -437.9 300.3 -424.7 295.5 C-411.5 290.8 -386.3 283.8 -372.9 281.4 C-359.4 279 -348.6 282.5 -344 281 C-339.4 279.5 -342.9 277.3 -345.1 272.1 C-347.3 267 -355.2 255.4 -357 250 C-358.8 244.6 -355.2 245.7 -356 240 C-356.8 234.3 -361.2 226.3 -362.1 216 C-362.9 205.7 -363.2 192.5 -361.1 178 C-359 163.5 -353.1 141.7 -349.4 129.1 C-345.7 116.4 -343.5 111.8 -338.9 102.1 C-334.4 92.4 -326.7 75.1 -322 71 C-317.3 66.9 -315.4 73.1 -310.6 77.6 C-305.8 82.1 -298.4 90.7 -293 98 C-287.6 105.3 -281.1 115.5 -278 121.5 C-274.8 127.5 -275.2 131.9 -274 134 C-272.8 136.1 -273 130.8 -271 134 C-269 137.2 -264 150.2 -262 153 C-260 155.8 -259.8 150.3 -259 151 C-258.2 151.7 -259.2 157.2 -257 157 C-254.8 156.8 -248.9 153 -246.1 149.8 C-243.3 146.7 -245.7 145.6 -240 138 C-234.3 130.4 -220 113.1 -211.9 104.1 C-203.7 95.1 -197.5 89.2 -191 84 C-184.5 78.8 -180 78.3 -173 73 C-166 67.7 -158.8 58.8 -149 52 C-139.2 45.2 -121.5 35.3 -114 32 C-106.5 28.7 -105.8 32.6 -103.9 32 C-102.1 31.3 -105.2 30 -103 28 C-100.8 26 -105 26.3 -91 20 C-77 13.7 -33.2 -4.7 -19 -10 C-4.8 -15.3 -8.8 -13.5 -5.7 -11.8 C-2.5 -10.2 -2.5 -8.1 0 0 Z" fill="#C8A2C8" transform="translate(783,487)"/>
</svg>